%TF.GenerationSoftware,KiCad,Pcbnew,8.0.4*%
%TF.CreationDate,2024-11-03T02:00:12+08:00*%
%TF.ProjectId,MeshtasticStick,4d657368-7461-4737-9469-63537469636b,rev?*%
%TF.SameCoordinates,Original*%
%TF.FileFunction,Other,Comment*%
%FSLAX46Y46*%
G04 Gerber Fmt 4.6, Leading zero omitted, Abs format (unit mm)*
G04 Created by KiCad (PCBNEW 8.0.4) date 2024-11-03 02:00:12*
%MOMM*%
%LPD*%
G01*
G04 APERTURE LIST*
%ADD10C,0.150000*%
%ADD11C,0.040000*%
G04 APERTURE END LIST*
D10*
X126692295Y-129076666D02*
X125892295Y-129076666D01*
X126692295Y-128619523D02*
X126235152Y-128962381D01*
X125892295Y-128619523D02*
X126349438Y-129076666D01*
X126273247Y-128276666D02*
X126273247Y-128010000D01*
X126692295Y-127895714D02*
X126692295Y-128276666D01*
X126692295Y-128276666D02*
X125892295Y-128276666D01*
X125892295Y-128276666D02*
X125892295Y-127895714D01*
X126273247Y-127552856D02*
X126273247Y-127286190D01*
X126692295Y-127171904D02*
X126692295Y-127552856D01*
X126692295Y-127552856D02*
X125892295Y-127552856D01*
X125892295Y-127552856D02*
X125892295Y-127171904D01*
X126692295Y-126829046D02*
X125892295Y-126829046D01*
X125892295Y-126829046D02*
X125892295Y-126524284D01*
X125892295Y-126524284D02*
X125930390Y-126448094D01*
X125930390Y-126448094D02*
X125968485Y-126409999D01*
X125968485Y-126409999D02*
X126044676Y-126371903D01*
X126044676Y-126371903D02*
X126158961Y-126371903D01*
X126158961Y-126371903D02*
X126235152Y-126409999D01*
X126235152Y-126409999D02*
X126273247Y-126448094D01*
X126273247Y-126448094D02*
X126311342Y-126524284D01*
X126311342Y-126524284D02*
X126311342Y-126829046D01*
X125892295Y-125267141D02*
X125892295Y-125114760D01*
X125892295Y-125114760D02*
X125930390Y-125038570D01*
X125930390Y-125038570D02*
X126006580Y-124962379D01*
X126006580Y-124962379D02*
X126158961Y-124924284D01*
X126158961Y-124924284D02*
X126425628Y-124924284D01*
X126425628Y-124924284D02*
X126578009Y-124962379D01*
X126578009Y-124962379D02*
X126654200Y-125038570D01*
X126654200Y-125038570D02*
X126692295Y-125114760D01*
X126692295Y-125114760D02*
X126692295Y-125267141D01*
X126692295Y-125267141D02*
X126654200Y-125343332D01*
X126654200Y-125343332D02*
X126578009Y-125419522D01*
X126578009Y-125419522D02*
X126425628Y-125457618D01*
X126425628Y-125457618D02*
X126158961Y-125457618D01*
X126158961Y-125457618D02*
X126006580Y-125419522D01*
X126006580Y-125419522D02*
X125930390Y-125343332D01*
X125930390Y-125343332D02*
X125892295Y-125267141D01*
X125892295Y-124581427D02*
X126539914Y-124581427D01*
X126539914Y-124581427D02*
X126616104Y-124543332D01*
X126616104Y-124543332D02*
X126654200Y-124505237D01*
X126654200Y-124505237D02*
X126692295Y-124429046D01*
X126692295Y-124429046D02*
X126692295Y-124276665D01*
X126692295Y-124276665D02*
X126654200Y-124200475D01*
X126654200Y-124200475D02*
X126616104Y-124162380D01*
X126616104Y-124162380D02*
X126539914Y-124124284D01*
X126539914Y-124124284D02*
X125892295Y-124124284D01*
X125892295Y-123857618D02*
X125892295Y-123400475D01*
X126692295Y-123629047D02*
X125892295Y-123629047D01*
X125892295Y-122600475D02*
X125892295Y-122067141D01*
X125892295Y-122067141D02*
X126692295Y-122600475D01*
X126692295Y-122600475D02*
X126692295Y-122067141D01*
X125892295Y-121609998D02*
X125892295Y-121457617D01*
X125892295Y-121457617D02*
X125930390Y-121381427D01*
X125930390Y-121381427D02*
X126006580Y-121305236D01*
X126006580Y-121305236D02*
X126158961Y-121267141D01*
X126158961Y-121267141D02*
X126425628Y-121267141D01*
X126425628Y-121267141D02*
X126578009Y-121305236D01*
X126578009Y-121305236D02*
X126654200Y-121381427D01*
X126654200Y-121381427D02*
X126692295Y-121457617D01*
X126692295Y-121457617D02*
X126692295Y-121609998D01*
X126692295Y-121609998D02*
X126654200Y-121686189D01*
X126654200Y-121686189D02*
X126578009Y-121762379D01*
X126578009Y-121762379D02*
X126425628Y-121800475D01*
X126425628Y-121800475D02*
X126158961Y-121800475D01*
X126158961Y-121800475D02*
X126006580Y-121762379D01*
X126006580Y-121762379D02*
X125930390Y-121686189D01*
X125930390Y-121686189D02*
X125892295Y-121609998D01*
X126692295Y-120924284D02*
X125892295Y-120924284D01*
X125892295Y-120924284D02*
X126692295Y-120467141D01*
X126692295Y-120467141D02*
X125892295Y-120467141D01*
X126273247Y-120086189D02*
X126273247Y-119819523D01*
X126692295Y-119705237D02*
X126692295Y-120086189D01*
X126692295Y-120086189D02*
X125892295Y-120086189D01*
X125892295Y-120086189D02*
X125892295Y-119705237D01*
D11*
X129162967Y-127350476D02*
X128762967Y-127350476D01*
X129162967Y-127121905D02*
X128934396Y-127293334D01*
X128762967Y-127121905D02*
X128991539Y-127350476D01*
X128953443Y-126950476D02*
X128953443Y-126817143D01*
X129162967Y-126760000D02*
X129162967Y-126950476D01*
X129162967Y-126950476D02*
X128762967Y-126950476D01*
X128762967Y-126950476D02*
X128762967Y-126760000D01*
X128953443Y-126588571D02*
X128953443Y-126455238D01*
X129162967Y-126398095D02*
X129162967Y-126588571D01*
X129162967Y-126588571D02*
X128762967Y-126588571D01*
X128762967Y-126588571D02*
X128762967Y-126398095D01*
X129162967Y-126226666D02*
X128762967Y-126226666D01*
X128762967Y-126226666D02*
X128762967Y-126074285D01*
X128762967Y-126074285D02*
X128782015Y-126036190D01*
X128782015Y-126036190D02*
X128801062Y-126017143D01*
X128801062Y-126017143D02*
X128839158Y-125998095D01*
X128839158Y-125998095D02*
X128896300Y-125998095D01*
X128896300Y-125998095D02*
X128934396Y-126017143D01*
X128934396Y-126017143D02*
X128953443Y-126036190D01*
X128953443Y-126036190D02*
X128972491Y-126074285D01*
X128972491Y-126074285D02*
X128972491Y-126226666D01*
X128762967Y-125445714D02*
X128762967Y-125369523D01*
X128762967Y-125369523D02*
X128782015Y-125331428D01*
X128782015Y-125331428D02*
X128820110Y-125293333D01*
X128820110Y-125293333D02*
X128896300Y-125274285D01*
X128896300Y-125274285D02*
X129029634Y-125274285D01*
X129029634Y-125274285D02*
X129105824Y-125293333D01*
X129105824Y-125293333D02*
X129143920Y-125331428D01*
X129143920Y-125331428D02*
X129162967Y-125369523D01*
X129162967Y-125369523D02*
X129162967Y-125445714D01*
X129162967Y-125445714D02*
X129143920Y-125483809D01*
X129143920Y-125483809D02*
X129105824Y-125521904D01*
X129105824Y-125521904D02*
X129029634Y-125540952D01*
X129029634Y-125540952D02*
X128896300Y-125540952D01*
X128896300Y-125540952D02*
X128820110Y-125521904D01*
X128820110Y-125521904D02*
X128782015Y-125483809D01*
X128782015Y-125483809D02*
X128762967Y-125445714D01*
X128762967Y-125102856D02*
X129086777Y-125102856D01*
X129086777Y-125102856D02*
X129124872Y-125083809D01*
X129124872Y-125083809D02*
X129143920Y-125064761D01*
X129143920Y-125064761D02*
X129162967Y-125026666D01*
X129162967Y-125026666D02*
X129162967Y-124950475D01*
X129162967Y-124950475D02*
X129143920Y-124912380D01*
X129143920Y-124912380D02*
X129124872Y-124893333D01*
X129124872Y-124893333D02*
X129086777Y-124874285D01*
X129086777Y-124874285D02*
X128762967Y-124874285D01*
X128762967Y-124740951D02*
X128762967Y-124512380D01*
X129162967Y-124626666D02*
X128762967Y-124626666D01*
X128262967Y-127621904D02*
X128262967Y-127393333D01*
X128662967Y-127507619D02*
X128262967Y-127507619D01*
X128262967Y-127183809D02*
X128262967Y-127107618D01*
X128262967Y-127107618D02*
X128282015Y-127069523D01*
X128282015Y-127069523D02*
X128320110Y-127031428D01*
X128320110Y-127031428D02*
X128396300Y-127012380D01*
X128396300Y-127012380D02*
X128529634Y-127012380D01*
X128529634Y-127012380D02*
X128605824Y-127031428D01*
X128605824Y-127031428D02*
X128643920Y-127069523D01*
X128643920Y-127069523D02*
X128662967Y-127107618D01*
X128662967Y-127107618D02*
X128662967Y-127183809D01*
X128662967Y-127183809D02*
X128643920Y-127221904D01*
X128643920Y-127221904D02*
X128605824Y-127259999D01*
X128605824Y-127259999D02*
X128529634Y-127279047D01*
X128529634Y-127279047D02*
X128396300Y-127279047D01*
X128396300Y-127279047D02*
X128320110Y-127259999D01*
X128320110Y-127259999D02*
X128282015Y-127221904D01*
X128282015Y-127221904D02*
X128262967Y-127183809D01*
X128662967Y-126840951D02*
X128262967Y-126840951D01*
X128262967Y-126840951D02*
X128262967Y-126688570D01*
X128262967Y-126688570D02*
X128282015Y-126650475D01*
X128282015Y-126650475D02*
X128301062Y-126631428D01*
X128301062Y-126631428D02*
X128339158Y-126612380D01*
X128339158Y-126612380D02*
X128396300Y-126612380D01*
X128396300Y-126612380D02*
X128434396Y-126631428D01*
X128434396Y-126631428D02*
X128453443Y-126650475D01*
X128453443Y-126650475D02*
X128472491Y-126688570D01*
X128472491Y-126688570D02*
X128472491Y-126840951D01*
X128662967Y-125945713D02*
X128662967Y-126136189D01*
X128662967Y-126136189D02*
X128262967Y-126136189D01*
X128548681Y-125831427D02*
X128548681Y-125640951D01*
X128662967Y-125869522D02*
X128262967Y-125736189D01*
X128262967Y-125736189D02*
X128662967Y-125602856D01*
X128472491Y-125393332D02*
X128662967Y-125393332D01*
X128262967Y-125526665D02*
X128472491Y-125393332D01*
X128472491Y-125393332D02*
X128262967Y-125259999D01*
X128453443Y-125126665D02*
X128453443Y-124993332D01*
X128662967Y-124936189D02*
X128662967Y-125126665D01*
X128662967Y-125126665D02*
X128262967Y-125126665D01*
X128262967Y-125126665D02*
X128262967Y-124936189D01*
X128662967Y-124536189D02*
X128472491Y-124669522D01*
X128662967Y-124764760D02*
X128262967Y-124764760D01*
X128262967Y-124764760D02*
X128262967Y-124612379D01*
X128262967Y-124612379D02*
X128282015Y-124574284D01*
X128282015Y-124574284D02*
X128301062Y-124555237D01*
X128301062Y-124555237D02*
X128339158Y-124536189D01*
X128339158Y-124536189D02*
X128396300Y-124536189D01*
X128396300Y-124536189D02*
X128434396Y-124555237D01*
X128434396Y-124555237D02*
X128453443Y-124574284D01*
X128453443Y-124574284D02*
X128472491Y-124612379D01*
X128472491Y-124612379D02*
X128472491Y-124764760D01*
M02*
