%TF.GenerationSoftware,KiCad,Pcbnew,8.0.4*%
%TF.CreationDate,2024-11-03T02:00:12+08:00*%
%TF.ProjectId,MeshtasticStick,4d657368-7461-4737-9469-63537469636b,rev?*%
%TF.SameCoordinates,Original*%
%TF.FileFunction,Legend,Bot*%
%TF.FilePolarity,Positive*%
%FSLAX46Y46*%
G04 Gerber Fmt 4.6, Leading zero omitted, Abs format (unit mm)*
G04 Created by KiCad (PCBNEW 8.0.4) date 2024-11-03 02:00:12*
%MOMM*%
%LPD*%
G01*
G04 APERTURE LIST*
G04 Aperture macros list*
%AMFreePoly0*
4,1,19,0.550000,-0.750000,0.000000,-0.750000,0.000000,-0.744911,-0.071157,-0.744911,-0.207708,-0.704816,-0.327430,-0.627875,-0.420627,-0.520320,-0.479746,-0.390866,-0.500000,-0.250000,-0.500000,0.250000,-0.479746,0.390866,-0.420627,0.520320,-0.327430,0.627875,-0.207708,0.704816,-0.071157,0.744911,0.000000,0.744911,0.000000,0.750000,0.550000,0.750000,0.550000,-0.750000,0.550000,-0.750000,
$1*%
%AMFreePoly1*
4,1,19,0.000000,0.744911,0.071157,0.744911,0.207708,0.704816,0.327430,0.627875,0.420627,0.520320,0.479746,0.390866,0.500000,0.250000,0.500000,-0.250000,0.479746,-0.390866,0.420627,-0.520320,0.327430,-0.627875,0.207708,-0.704816,0.071157,-0.744911,0.000000,-0.744911,0.000000,-0.750000,-0.550000,-0.750000,-0.550000,0.750000,0.000000,0.750000,0.000000,0.744911,0.000000,0.744911,
$1*%
G04 Aperture macros list end*
%ADD10C,0.150000*%
%ADD11C,0.120000*%
%ADD12C,0.600000*%
%ADD13O,2.204000X1.104000*%
%ADD14O,1.904000X1.104000*%
%ADD15R,1.700000X1.700000*%
%ADD16O,1.700000X1.700000*%
%ADD17R,1.000000X1.000000*%
%ADD18O,1.000000X1.000000*%
%ADD19FreePoly0,90.000000*%
%ADD20R,1.500000X1.000000*%
%ADD21FreePoly1,90.000000*%
G04 APERTURE END LIST*
D10*
X127554819Y-132666666D02*
X128269104Y-132666666D01*
X128269104Y-132666666D02*
X128411961Y-132619047D01*
X128411961Y-132619047D02*
X128507200Y-132523809D01*
X128507200Y-132523809D02*
X128554819Y-132380952D01*
X128554819Y-132380952D02*
X128554819Y-132285714D01*
X128554819Y-133142857D02*
X127554819Y-133142857D01*
X127554819Y-133142857D02*
X127554819Y-133523809D01*
X127554819Y-133523809D02*
X127602438Y-133619047D01*
X127602438Y-133619047D02*
X127650057Y-133666666D01*
X127650057Y-133666666D02*
X127745295Y-133714285D01*
X127745295Y-133714285D02*
X127888152Y-133714285D01*
X127888152Y-133714285D02*
X127983390Y-133666666D01*
X127983390Y-133666666D02*
X128031009Y-133619047D01*
X128031009Y-133619047D02*
X128078628Y-133523809D01*
X128078628Y-133523809D02*
X128078628Y-133142857D01*
X128554819Y-134666666D02*
X128554819Y-134095238D01*
X128554819Y-134380952D02*
X127554819Y-134380952D01*
X127554819Y-134380952D02*
X127697676Y-134285714D01*
X127697676Y-134285714D02*
X127792914Y-134190476D01*
X127792914Y-134190476D02*
X127840533Y-134095238D01*
D11*
%TO.C,JP1*%
X124800000Y-134400000D02*
X124800000Y-135000000D01*
X124800000Y-134400000D02*
X125100000Y-134700000D01*
X124800000Y-135000000D02*
X125100000Y-134700000D01*
X125300000Y-134900000D02*
X125300000Y-132100000D01*
X126000000Y-131450000D02*
X126600000Y-131450000D01*
X126600000Y-135550000D02*
X126000000Y-135550000D01*
X127300000Y-132100000D02*
X127300000Y-134900000D01*
X125300000Y-132150000D02*
G75*
G02*
X126000000Y-131450000I700000J0D01*
G01*
X126000000Y-135550000D02*
G75*
G02*
X125300000Y-134850000I-1J699999D01*
G01*
X126600000Y-131450000D02*
G75*
G02*
X127300000Y-132150000I0J-700000D01*
G01*
X127300000Y-134850000D02*
G75*
G02*
X126600000Y-135550000I-699999J-1D01*
G01*
%TD*%
%LPC*%
D12*
%TO.C,J1*%
X150625000Y-122542400D03*
X150625000Y-116762400D03*
D13*
X150135000Y-123977400D03*
X150135000Y-115327400D03*
D14*
X154305000Y-123977400D03*
X154305000Y-115327400D03*
%TD*%
D15*
%TO.C,J4*%
X129550000Y-135890000D03*
D16*
X132090000Y-135890000D03*
X134630000Y-135890000D03*
X137170000Y-135890000D03*
%TD*%
D17*
%TO.C,J2*%
X127000000Y-109855000D03*
D18*
X128270000Y-109855000D03*
X127000000Y-111125000D03*
X128270000Y-111125000D03*
X127000000Y-112395000D03*
X128270000Y-112395000D03*
X127000000Y-113665000D03*
X128270000Y-113665000D03*
X127000000Y-114935000D03*
X128270000Y-114935000D03*
%TD*%
D15*
%TO.C,J3*%
X129540000Y-132715000D03*
D16*
X132080000Y-132715000D03*
X134620000Y-132715000D03*
X137160000Y-132715000D03*
%TD*%
D15*
%TO.C,J6*%
X140900000Y-140740000D03*
D16*
X140900000Y-138200000D03*
X140900000Y-135660000D03*
X140900000Y-133120000D03*
%TD*%
D15*
%TO.C,J5*%
X142625000Y-160500000D03*
D16*
X145165000Y-160500000D03*
%TD*%
D15*
%TO.C,BT1*%
X127500000Y-151575000D03*
D16*
X127500000Y-149035000D03*
%TD*%
D19*
%TO.C,JP1*%
X126300000Y-134800000D03*
D20*
X126300000Y-133500000D03*
D21*
X126300000Y-132200000D03*
%TD*%
%LPD*%
M02*
