M48
; DRILL file {KiCad 8.0.4} date 2024-11-03T02:00:12+0800
; FORMAT={-:-/ absolute / inch / decimal}
; #@! TF.CreationDate,2024-11-03T02:00:12+08:00
; #@! TF.GenerationSoftware,Kicad,Pcbnew,8.0.4
; #@! TF.FileFunction,Plated,1,2,PTH
FMAT,2
INCH
; #@! TA.AperFunction,Plated,PTH,ViaDrill
T1C0.0118
; #@! TA.AperFunction,Plated,PTH,ComponentDrill
T2C0.0236
; #@! TA.AperFunction,Plated,PTH,ComponentDrill
T3C0.0256
; #@! TA.AperFunction,Plated,PTH,ComponentDrill
T4C0.0394
%
G90
G05
T1
X4.9764Y-5.3189
X4.9803Y-5.626
X5.0236Y-5.1614
X5.0433Y-5.685
X5.0433Y-5.752
X5.0543Y-5.1339
X5.0945Y-5.1378
X5.126Y-4.811
X5.1339Y-4.6496
X5.1417Y-4.4291
X5.1457Y-4.3031
X5.1756Y-5.0173
X5.1772Y-3.6378
X5.1772Y-5.4882
X5.1772Y-5.9685
X5.1831Y-5.7402
X5.1929Y-5.7021
X5.2126Y-6.0923
X5.2165Y-5.1299
X5.2165Y-5.6693
X5.2205Y-6.2205
X5.2425Y-5.0227
X5.252Y-5.1299
X5.2598Y-5.5512
X5.2638Y-5.498
X5.2693Y-5.0026
X5.2756Y-6.1969
X5.2835Y-5.9882
X5.2874Y-5.9567
X5.2913Y-5.1299
X5.2929Y-5.0238
X5.3209Y-5.0055
X5.3236Y-5.7343
X5.3268Y-5.1378
X5.3386Y-6.1142
X5.3661Y-5.1299
X5.3937Y-5.9055
X5.3976Y-4.6457
X5.4016Y-5.5157
X5.437Y-5.4528
X5.4803Y-5.7756
X5.4866Y-5.2869
X5.498Y-5.8406
X5.5018Y-4.4114
X5.5066Y-4.6371
X5.5118Y-4.6693
X5.5118Y-4.9291
X5.5276Y-4.7047
X5.5276Y-4.8976
X5.5906Y-4.4134
X5.5984Y-4.811
X5.6575Y-5.4213
X5.689Y-5.3386
X5.6919Y-4.8701
X5.7303Y-4.6811
X5.7303Y-4.7414
X5.7323Y-5.0315
X5.7323Y-5.4213
X5.7559Y-5.1969
X5.7913Y-6.1102
X5.815Y-4.9173
X5.8189Y-4.5945
X5.8189Y-5.3543
X5.8504Y-4.8071
X5.9134Y-4.0276
X5.9134Y-3.5354
X5.9134Y-3.7283
X5.9134Y-5.252
X5.9173Y-3.6339
X5.9488Y-5.0354
X5.9724Y-5.3661
X6.0669Y-3.4331
X6.0827Y-3.9567
X6.0906Y-3.8543
T3
X5.0Y-4.325
X5.0Y-4.375
X5.0Y-4.425
X5.0Y-4.475
X5.0Y-4.525
X5.05Y-4.325
X5.05Y-4.375
X5.05Y-4.425
X5.05Y-4.475
X5.05Y-4.525
T4
X5.0197Y-5.8675
X5.0197Y-5.9675
X5.1Y-5.225
X5.1004Y-5.35
X5.2Y-5.225
X5.2004Y-5.35
X5.3Y-5.225
X5.3004Y-5.35
X5.4Y-5.225
X5.4004Y-5.35
X5.5472Y-5.2409
X5.5472Y-5.3409
X5.5472Y-5.4409
X5.5472Y-5.5409
X5.6152Y-6.3189
X5.7152Y-6.3189
T2
G00X5.8892Y-4.5404
M15
G01X5.9325Y-4.5404
M16
G05
G00X5.8892Y-4.881
M15
G01X5.9325Y-4.881
M16
G05
G00X6.0593Y-4.5404
M15
G01X6.0907Y-4.5404
M16
G05
G00X6.0593Y-4.881
M15
G01X6.0907Y-4.881
M16
G05
M30
